<svg xmlns="http://www.w3.org/2000/svg" viewBox="0 0 512 512" fill="#3a76f0">
  <path d="M256 32C132.3 32 32 132.3 32 256c0 37.7 9.3 73.2 25.7 104.4L32 480l119.6-25.7C182.8 470.7 218.3 480 256 480c123.7 0 224-100.3 224-224S379.7 32 256 32zm0 384c-32.8 0-63.4-9.9-88.8-26.9L64 416l26.9-103.2C73.9 287.4 64 256.8 64 224c0-106 86-192 192-192s192 86 192 192-86 192-192 192z"/>
  <path d="M375 200c-8.3-45.8-48.3-80-95-80s-86.7 34.2-95 80c-1.1 6.1 3 11.7 9.1 12.8 6.1 1.1 11.7-3 12.8-9.1 6-33.1 35-58.7 73.1-58.7s67.1 25.6 73.1 58.7c1.1 6.1 6.7 10.2 12.8 9.1 6.1-1.1 10.2-6.7 9.1-12.8z"/>
  <path d="M336 256c0-44.1-35.9-80-80-80s-80 35.9-80 80 35.9 80 80 80 80-35.9 80-80zm-128 0c0-26.5 21.5-48 48-48s48 21.5 48 48-21.5 48-48 48-48-21.5-48-48z"/>
</svg> 