<svg xmlns="http://www.w3.org/2000/svg" width="666.0800000000002px" height="92px" viewBox="-17.14 -59.52 666.0800000000002 92"><path d="M15.60 0.52L15.60 0.52Q11.91 0.52 9.02-0.99Q6.14-2.50 4.50-5.67Q2.86-8.84 2.86-13.78L2.86-13.78Q2.86-18.93 4.58-22.15Q6.29-25.38 9.23-26.88Q12.17-28.39 15.91-28.39L15.91-28.39Q18.04-28.39 20.02-27.95Q22.00-27.51 23.24-26.88L23.24-26.88L21.84-23.09Q20.59-23.56 18.93-23.97Q17.26-24.39 15.81-24.39L15.81-24.39Q7.59-24.39 7.59-13.83L7.59-13.83Q7.59-8.79 9.59-6.11Q11.60-3.43 15.55-3.43L15.55-3.43Q17.84-3.43 19.58-3.90Q21.32-4.37 22.78-5.04L22.78-5.04L22.78-0.99Q21.37-0.26 19.68 0.13Q17.99 0.52 15.60 0.52ZM40.14-28.39L40.14-28.39Q43.73-28.39 46.31-26.83Q48.88-25.27 50.26-22.44Q51.64-19.60 51.64-15.81L51.64-15.81L51.64-13.05L32.55-13.05Q32.66-8.32 34.97-5.85Q37.28-3.38 41.44-3.38L41.44-3.38Q44.10-3.38 46.15-3.87Q48.20-4.37 50.39-5.30L50.39-5.30L50.39-1.30Q48.26-0.36 46.18 0.08Q44.10 0.52 41.24 0.52L41.24 0.52Q37.28 0.52 34.24-1.09Q31.20-2.70 29.51-5.90Q27.82-9.10 27.82-13.73L27.82-13.73Q27.82-18.30 29.35-21.58Q30.89-24.86 33.67-26.62Q36.45-28.39 40.14-28.39ZM40.09-24.65L40.09-24.65Q36.82-24.65 34.92-22.54Q33.02-20.44 32.66-16.69L32.66-16.69L46.85-16.69Q46.80-20.23 45.19-22.44Q43.58-24.65 40.09-24.65ZM72.12-28.39L72.12-28.39Q77.12-28.39 79.66-25.97Q82.21-23.56 82.21-18.15L82.21-18.15L82.21 0L77.69 0L77.69-17.84Q77.69-21.22 76.18-22.88Q74.67-24.54 71.45-24.54L71.45-24.54Q66.82-24.54 65.05-21.94Q63.28-19.34 63.28-14.46L63.28-14.46L63.28 0L58.71 0L58.71-27.87L62.40-27.87L63.08-24.08L63.34-24.08Q64.69-26.26 67.08-27.33Q69.47-28.39 72.12-28.39ZM95.37-39.52L95.37-18.88Q95.37-18.04 95.29-16.69Q95.21-15.34 95.16-14.35L95.16-14.35L95.37-14.35Q95.68-14.77 96.30-15.55Q96.93-16.33 97.58-17.13Q98.23-17.94 98.70-18.46L98.70-18.46L107.59-27.87L112.94-27.87L101.66-15.96L113.72 0L108.21 0L98.54-13.00L95.37-10.24L95.37 0L90.84 0L90.84-39.52L95.37-39.52ZM129.38-28.39L129.38-28.39Q132.96-28.39 135.54-26.83Q138.11-25.27 139.49-22.44Q140.87-19.60 140.87-15.81L140.87-15.81L140.87-13.05L121.78-13.05Q121.89-8.32 124.20-5.85Q126.52-3.38 130.68-3.38L130.68-3.38Q133.33-3.38 135.38-3.87Q137.44-4.37 139.62-5.30L139.62-5.30L139.62-1.30Q137.49-0.36 135.41 0.08Q133.33 0.52 130.47 0.52L130.47 0.52Q126.52 0.52 123.47-1.09Q120.43-2.70 118.74-5.90Q117.05-9.10 117.05-13.73L117.05-13.73Q117.05-18.30 118.59-21.58Q120.12-24.86 122.90-26.62Q125.68-28.39 129.38-28.39ZM129.32-24.65L129.32-24.65Q126.05-24.65 124.15-22.54Q122.25-20.44 121.89-16.69L121.89-16.69L136.08-16.69Q136.03-20.23 134.42-22.44Q132.81-24.65 129.32-24.65ZM160.94-28.39L160.94-28.39Q161.72-28.39 162.63-28.31Q163.54-28.24 164.22-28.08L164.22-28.08L163.64-23.87Q162.97-24.02 162.16-24.13Q161.36-24.23 160.63-24.23L160.63-24.23Q158.50-24.23 156.62-23.06Q154.75-21.89 153.63-19.79Q152.52-17.68 152.52-14.87L152.52-14.87L152.52 0L147.94 0L147.94-27.87L151.68-27.87L152.20-22.78L152.41-22.78Q153.76-25.06 155.90-26.73Q158.03-28.39 160.94-28.39ZM180.60 0.52L180.60 0.52Q176.90 0.52 174.02-0.99Q171.13-2.50 169.49-5.67Q167.86-8.84 167.86-13.78L167.86-13.78Q167.86-18.93 169.57-22.15Q171.29-25.38 174.23-26.88Q177.16-28.39 180.91-28.39L180.91-28.39Q183.04-28.39 185.02-27.95Q186.99-27.51 188.24-26.88L188.24-26.88L186.84-23.09Q185.59-23.56 183.92-23.97Q182.26-24.39 180.80-24.39L180.80-24.39Q172.59-24.39 172.59-13.83L172.59-13.83Q172.59-8.79 174.59-6.11Q176.59-3.43 180.54-3.43L180.54-3.43Q182.83-3.43 184.57-3.90Q186.32-4.37 187.77-5.04L187.77-5.04L187.77-0.99Q186.37-0.26 184.68 0.13Q182.99 0.52 180.60 0.52ZM205.14-28.39L205.14-28.39Q208.73-28.39 211.30-26.83Q213.88-25.27 215.25-22.44Q216.63-19.60 216.63-15.81L216.63-15.81L216.63-13.05L197.55-13.05Q197.65-8.32 199.97-5.85Q202.28-3.38 206.44-3.38L206.44-3.38Q209.09-3.38 211.15-3.87Q213.20-4.37 215.38-5.30L215.38-5.30L215.38-1.30Q213.25-0.36 211.17 0.08Q209.09 0.52 206.23 0.52L206.23 0.52Q202.28 0.52 199.24-1.09Q196.20-2.70 194.51-5.90Q192.82-9.10 192.82-13.73L192.82-13.73Q192.82-18.30 194.35-21.58Q195.88-24.86 198.67-26.62Q201.45-28.39 205.14-28.39ZM205.09-24.65L205.09-24.65Q201.81-24.65 199.91-22.54Q198.02-20.44 197.65-16.69L197.65-16.69L211.85-16.69Q211.80-20.23 210.18-22.44Q208.57-24.65 205.09-24.65ZM237.12-28.39L237.12-28.39Q242.11-28.39 244.66-25.97Q247.21-23.56 247.21-18.15L247.21-18.15L247.21 0L242.68 0L242.68-17.84Q242.68-21.22 241.18-22.88Q239.67-24.54 236.44-24.54L236.44-24.54Q231.82-24.54 230.05-21.94Q228.28-19.34 228.28-14.46L228.28-14.46L228.28 0L223.70 0L223.70-27.87L227.40-27.87L228.07-24.08L228.33-24.08Q229.68-26.26 232.08-27.33Q234.47-28.39 237.12-28.39ZM269.26-28.39L269.26-28.39Q274.25-28.39 276.80-25.97Q279.34-23.56 279.34-18.15L279.34-18.15L279.34 0L274.82 0L274.82-17.84Q274.82-21.22 273.31-22.88Q271.80-24.54 268.58-24.54L268.58-24.54Q263.95-24.54 262.18-21.94Q260.42-19.34 260.42-14.46L260.42-14.46L260.42 0L255.84 0L255.84-27.87L259.53-27.87L260.21-24.08L260.47-24.08Q261.82-26.26 264.21-27.33Q266.60-28.39 269.26-28.39ZM298.74-28.39L298.74-28.39Q302.33-28.39 304.90-26.83Q307.48-25.27 308.85-22.44Q310.23-19.60 310.23-15.81L310.23-15.81L310.23-13.05L291.15-13.05Q291.25-8.32 293.57-5.85Q295.88-3.38 300.04-3.38L300.04-3.38Q302.69-3.38 304.75-3.87Q306.80-4.37 308.98-5.30L308.98-5.30L308.98-1.30Q306.85-0.36 304.77 0.08Q302.69 0.52 299.83 0.52L299.83 0.52Q295.88 0.52 292.84-1.09Q289.80-2.70 288.11-5.90Q286.42-9.10 286.42-13.73L286.42-13.73Q286.42-18.30 287.95-21.58Q289.48-24.86 292.27-26.62Q295.05-28.39 298.74-28.39ZM298.69-24.65L298.69-24.65Q295.41-24.65 293.51-22.54Q291.62-20.44 291.25-16.69L291.25-16.69L305.45-16.69Q305.40-20.23 303.78-22.44Q302.17-24.65 298.69-24.65ZM326.61-3.22L326.61-3.22Q327.65-3.22 328.74-3.41Q329.84-3.59 330.51-3.80L330.51-3.80L330.51-0.31Q329.78 0.05 328.43 0.29Q327.08 0.52 325.83 0.52L325.83 0.52Q323.65 0.52 321.80-0.23Q319.96-0.99 318.81-2.86Q317.67-4.73 317.67-8.11L317.67-8.11L317.67-24.34L313.72-24.34L313.72-26.52L317.72-28.34L319.54-34.27L322.24-34.27L322.24-27.87L330.30-27.87L330.30-24.34L322.24-24.34L322.24-8.22Q322.24-5.67 323.47-4.45Q324.69-3.22 326.61-3.22ZM353.76 4.63L353.76 4.63Q347.62 4.63 343.25 2.34Q338.88 0.05 336.57-4.24Q334.26-8.53 334.26-14.56L334.26-14.56Q334.26-19.40 335.76-23.53Q337.27-27.66 340.13-30.71Q342.99-33.75 347.07-35.44Q351.16-37.13 356.30-37.13L356.30-37.13Q361.71-37.13 365.92-34.89Q370.14-32.66 372.55-28.50Q374.97-24.34 374.97-18.56L374.97-18.56Q374.97-16.17 374.43-13.88Q373.88-11.60 372.74-9.75Q371.59-7.90 369.93-6.79Q368.26-5.67 365.98-5.67L365.98-5.67Q363.58-5.67 362.21-7.05Q360.83-8.42 360.52-10.19L360.52-10.19L360.26-10.19Q359.32-8.27 357.50-6.97Q355.68-5.67 352.92-5.67L352.92-5.67Q348.97-5.67 346.81-8.32Q344.66-10.97 344.66-15.34L344.66-15.34Q344.66-18.77 346.01-21.40Q347.36-24.02 349.83-25.53Q352.30-27.04 355.68-27.04L355.68-27.04Q357.97-27.04 360.18-26.65Q362.39-26.26 363.64-25.79L363.64-25.79L363.12-15.24Q363.06-14.30 363.06-13.91Q363.06-13.52 363.06-13.36L363.06-13.36Q363.06-10.66 364.03-9.78Q364.99-8.89 366.29-8.89L366.29-8.89Q367.90-8.89 369.02-10.22Q370.14-11.54 370.73-13.75Q371.33-15.96 371.33-18.62L371.33-18.62Q371.33-23.45 369.38-26.81Q367.43-30.16 364.03-31.93Q360.62-33.70 356.30-33.70L356.30-33.70Q350.38-33.70 346.29-31.25Q342.21-28.81 340.11-24.52Q338-20.23 338-14.72L338-14.72Q338-7.02 342.06-2.91Q346.11 1.20 353.76 1.20L353.76 1.20Q356.93 1.20 359.81 0.49Q362.70-0.21 364.94-1.04L364.94-1.04L364.94 2.50Q362.70 3.43 359.92 4.03Q357.14 4.63 353.76 4.63ZM353.60-8.89L353.60-8.89Q356.51-8.89 357.79-11.08Q359.06-13.26 359.27-16.74L359.27-16.74L359.58-23.24Q358.90-23.45 357.86-23.61Q356.82-23.76 355.73-23.76L355.73-23.76Q353.18-23.76 351.62-22.52Q350.06-21.27 349.39-19.32Q348.71-17.37 348.71-15.24L348.71-15.24Q348.71-11.91 350.04-10.40Q351.36-8.89 353.60-8.89ZM391.87-28.39L391.87-28.39Q394.63-28.39 396.84-27.35Q399.05-26.31 400.61-24.18L400.61-24.18L400.87-24.18L401.49-27.87L405.13-27.87L405.13 0.47Q405.13 6.45 402.09 9.46Q399.05 12.48 392.65 12.48L392.65 12.48Q389.64 12.48 387.11 12.04Q384.59 11.60 382.62 10.71L382.62 10.71L382.62 6.50Q386.72 8.68 392.91 8.68L392.91 8.68Q396.50 8.68 398.55 6.58Q400.61 4.47 400.61 0.83L400.61 0.83L400.61-0.26Q400.61-0.88 400.66-2.05Q400.71-3.22 400.76-3.69L400.76-3.69L400.56-3.69Q399.10-1.56 396.94-0.52Q394.78 0.52 391.92 0.52L391.92 0.52Q386.52 0.52 383.47-3.28Q380.43-7.07 380.43-13.88L380.43-13.88Q380.43-20.54 383.47-24.47Q386.52-28.39 391.87-28.39ZM392.50-24.54L392.50-24.54Q389.01-24.54 387.09-21.76Q385.16-18.98 385.16-13.83L385.16-13.83Q385.16-8.68 387.06-5.95Q388.96-3.22 392.60-3.22L392.60-3.22Q396.81-3.22 398.74-5.49Q400.66-7.75 400.66-12.79L400.66-12.79L400.66-13.88Q400.66-19.60 398.68-22.07Q396.71-24.54 392.50-24.54ZM444.55-28.39L444.55-28.39Q449.28-28.39 451.62-25.97Q453.96-23.56 453.96-18.15L453.96-18.15L453.96 0L449.44 0L449.44-17.94Q449.44-24.54 443.77-24.54L443.77-24.54Q439.71-24.54 437.97-22.20Q436.23-19.86 436.23-15.39L436.23-15.39L436.23 0L431.70 0L431.70-17.94Q431.70-24.54 425.98-24.54L425.98-24.54Q421.77-24.54 420.16-21.94Q418.55-19.34 418.55-14.46L418.55-14.46L418.55 0L413.97 0L413.97-27.87L417.66-27.87L418.34-24.08L418.60-24.08Q419.90-26.26 422.11-27.33Q424.32-28.39 426.82-28.39L426.82-28.39Q430.04-28.39 432.20-27.25Q434.36-26.10 435.34-23.71L435.34-23.71L435.60-23.71Q437.01-26.10 439.43-27.25Q441.84-28.39 444.55-28.39ZM473.15-28.34L473.15-28.34Q478.24-28.34 480.69-26.10Q483.13-23.87 483.13-18.98L483.13-18.98L483.13 0L479.80 0L478.92-3.95L478.71-3.95Q476.89-1.66 474.89-0.57Q472.89 0.52 469.35 0.52L469.35 0.52Q465.56 0.52 463.06-1.48Q460.56-3.48 460.56-7.75L460.56-7.75Q460.56-11.91 463.84-14.17Q467.12-16.43 473.93-16.64L473.93-16.64L478.66-16.80L478.66-18.46Q478.66-21.94 477.15-23.30Q475.64-24.65 472.89-24.65L472.89-24.65Q470.70-24.65 468.73-24.00Q466.75-23.35 465.04-22.52L465.04-22.52L463.63-25.95Q465.45-26.94 467.95-27.64Q470.44-28.34 473.15-28.34ZM478.61-13.62L474.50-13.47Q469.30-13.26 467.30-11.80Q465.30-10.35 465.30-7.70L465.30-7.70Q465.30-5.36 466.73-4.26Q468.16-3.17 470.39-3.17L470.39-3.17Q473.93-3.17 476.27-5.12Q478.61-7.07 478.61-11.13L478.61-11.13L478.61-13.62ZM491.76-27.87L496.34-27.87L496.34 0L491.76 0L491.76-27.87ZM494.10-38.32L494.10-38.32Q495.14-38.32 495.95-37.62Q496.76-36.92 496.76-35.41L496.76-35.41Q496.76-33.96 495.95-33.23Q495.14-32.50 494.10-32.50L494.10-32.50Q492.96-32.50 492.18-33.23Q491.40-33.96 491.40-35.41L491.40-35.41Q491.40-36.92 492.18-37.62Q492.96-38.32 494.10-38.32ZM509.76-39.52L509.76 0L505.18 0L505.18-39.52L509.76-39.52ZM521.09 0.73L521.09 0.73Q519.79 0.73 518.86-0.10Q517.92-0.94 517.92-2.81L517.92-2.81Q517.92-4.73 518.86-5.51Q519.79-6.29 521.09-6.29L521.09-6.29Q522.44-6.29 523.41-5.51Q524.37-4.73 524.37-2.81L524.37-2.81Q524.37-0.94 523.41-0.10Q522.44 0.73 521.09 0.73ZM543.71 0.52L543.71 0.52Q540.02 0.52 537.13-0.99Q534.25-2.50 532.61-5.67Q530.97-8.84 530.97-13.78L530.97-13.78Q530.97-18.93 532.69-22.15Q534.40-25.38 537.34-26.88Q540.28-28.39 544.02-28.39L544.02-28.39Q546.16-28.39 548.13-27.95Q550.11-27.51 551.36-26.88L551.36-26.88L549.95-23.09Q548.70-23.56 547.04-23.97Q545.38-24.39 543.92-24.39L543.92-24.39Q535.70-24.39 535.70-13.83L535.70-13.83Q535.70-8.79 537.71-6.11Q539.71-3.43 543.66-3.43L543.66-3.43Q545.95-3.43 547.69-3.90Q549.43-4.37 550.89-5.04L550.89-5.04L550.89-0.99Q549.48-0.26 547.79 0.13Q546.10 0.52 543.71 0.52ZM581.72-13.99L581.72-13.99Q581.72-7.07 578.21-3.28Q574.70 0.52 568.72 0.52L568.72 0.52Q565.03 0.52 562.15-1.17Q559.26-2.86 557.60-6.11Q555.93-9.36 555.93-13.99L555.93-13.99Q555.93-20.90 559.42-24.65Q562.90-28.39 568.88-28.39L568.88-28.39Q572.68-28.39 575.56-26.70Q578.45-25.01 580.09-21.81Q581.72-18.62 581.72-13.99ZM560.66-13.99L560.66-13.99Q560.66-9.05 562.61-6.16Q564.56-3.28 568.83-3.28L568.83-3.28Q573.04-3.28 575.02-6.16Q576.99-9.05 576.99-13.99L576.99-13.99Q576.99-18.93 575.02-21.74Q573.04-24.54 568.78-24.54L568.78-24.54Q564.51-24.54 562.59-21.74Q560.66-18.93 560.66-13.99ZM619.53-28.39L619.53-28.39Q624.26-28.39 626.60-25.97Q628.94-23.56 628.94-18.15L628.94-18.15L628.94 0L624.42 0L624.42-17.94Q624.42-24.54 618.75-24.54L618.75-24.54Q614.69-24.54 612.95-22.20Q611.21-19.86 611.21-15.39L611.21-15.39L611.21 0L606.68 0L606.68-17.94Q606.68-24.54 600.96-24.54L600.96-24.54Q596.75-24.54 595.14-21.94Q593.53-19.34 593.53-14.46L593.53-14.46L593.53 0L588.95 0L588.95-27.87L592.64-27.87L593.32-24.08L593.58-24.08Q594.88-26.26 597.09-27.33Q599.30-28.39 601.80-28.39L601.80-28.39Q605.02-28.39 607.18-27.25Q609.34-26.10 610.32-23.71L610.32-23.71L610.58-23.71Q611.99-26.10 614.41-27.25Q616.82-28.39 619.53-28.39Z" fill="#ffffff"/></svg>